# xmcd
# Track frame offsets:
# 150
# 9880
# 22133
# 32526
# 44826
# 57290
# 66427
# 79000
# 92079
# 103279
# 113432
# 124746
# 137380
# 148671
# 161111
# 173267
# 185329
# 196208
# 207254
# 219506
#
# Disc length: 3052 seconds
# Revision: 0
# Processed by: cddbd v1.5.2PL0 Copyright (c) Steve Scherf et al.
# Submitted via: VisiTrax 2.11.3.279 - For more info visit www.synapsa.com
#
DISCID=140bea14
DTITLE=Various (1930s-1950s) Rock n Roll and Blues and Jazz Artists - Roots Of Ro
DTITLE=ck and Roll: Rough And Rowdy: CD9 of 10: *ReMastered Tracks
DYEAR=2014
DGENRE=Rock n Roll
TTITLE0=Melvin Smith - California Baby*
TTITLE1=Champion Jack Dupree - Shim Sham Shimmy*
TTITLE2=Johnny Otis and Marie Adams - Bye Bye Baby*
TTITLE3=Todd Rhodes - Rocket "69"*
TTITLE4=H-Bomb Ferguson - I Love My Baby*
TTITLE5=Ernie Williams - My Pretty Baby*
TTITLE6=Memphis Slim - Rockin' The House*
TTITLE7=Doc Starkes and The Niteriders - Women and Cadillacs*
TTITLE8=Big John Greer - I'm The Fat Man*
TTITLE9=Cootie Williams - Mercenary Papa*
TTITLE10=Jackie Brenston - In My Real Gone Rocket*
TTITLE11=Jimmy Preston - Oh Babe*
TTITLE12=B B King - She's Dynamite*
TTITLE13=Mister Sad Head - Sad Head Blues*
TTITLE14=Wild Bill Moore - Hey Spoo-Dee-O-Dee*
TTITLE15=Eddie Davis - Mountain Oyster*
TTITLE16=Jesse Allen - Let's Party*
TTITLE17=Frank Motley - New Hound Dog*
TTITLE18=Tiny Bradshaw - Walk That Mess*
TTITLE19=Jimmy Wilson - Jumpin From Six To Six*
EXTD=Compilation and ReMastering: Documents/The Intense Media: 2014
EXTT0=
EXTT1=
EXTT2=
EXTT3=
EXTT4=
EXTT5=
EXTT6=
EXTT7=
EXTT8=
EXTT9=
EXTT10=
EXTT11=
EXTT12=
EXTT13=
EXTT14=
EXTT15=
EXTT16=
EXTT17=
EXTT18=
EXTT19=
PLAYORDER=
